{
  "accessors": [
    {
      "bufferView": 2,
      "componentType": 5126,
      "count": 16539,
      "max": [
        6.9583802223205566,
        3.9418299198150635,
        6.3094401359558105
      ],
      "min": [
        -4.7610301971435547,
        -16.927400588989258,
        -5.0636100769042969
      ],
      "type": "VEC3"
    },
    {
      "bufferView": 2,
      "byteOffset": 198468,
      "componentType": 5126,
      "count": 16539,
      "max": [
        0.99999189376831055,
        0.99992901086807251,
        0.99997133016586304
      ],
      "min": [
        -0.99999547004699707,
        -0.98049229383468628,
        -0.99964570999145508
      ],
      "type": "VEC3"
    },
    {
      "bufferView": 3,
      "componentType": 5126,
      "count": 16539,
      "max": [
        0.99985349178314209,
        0.69538277387619019,
        0.99704045057296753,
        1
      ],
      "min": [
        -0.99903154373168945,
        -0.99999833106994629,
        -0.94436758756637573,
        1
      ],
      "type": "VEC4"
    },
    {
      "bufferView": 3,
      "byteOffset": 264624,
      "componentType": 5126,
      "count": 16539,
      "max": [
        0.75294101238250732,
        0.75294101238250732,
        0.75294101238250732,
        1
      ],
      "min": [
        0.75294101238250732,
        0.75294101238250732,
        0.75294101238250732,
        1
      ],
      "type": "VEC4"
    },
    {
      "bufferView": 1,
      "componentType": 5126,
      "count": 16539,
      "max": [
        0.98694199323654175,
        0.99633800983428955
      ],
      "min": [
        0.00026900001103058457,
        0.0097279995679855347
      ],
      "type": "VEC2"
    },
    {
      "bufferView": 0,
      "componentType": 5125,
      "count": 93441,
      "max": [
        16538
      ],
      "min": [
        0
      ],
      "type": "SCALAR"
    },
    {
      "bufferView": 2,
      "byteOffset": 396936,
      "componentType": 5126,
      "count": 10,
      "max": [
        4.8181800842285156,
        -6.9523501396179199,
        3.6211600303649902
      ],
      "min": [
        2.5759799480438232,
        -7.770470142364502,
        0.74626201391220093
      ],
      "type": "VEC3"
    },
    {
      "bufferView": 2,
      "byteOffset": 397056,
      "componentType": 5126,
      "count": 10,
      "max": [
        0.32786864042282104,
        -0.67159295082092285,
        0.69857257604598999
      ],
      "min": [
        -0.30536684393882751,
        -0.98049229383468628,
        0.004351531621068716
      ],
      "type": "VEC3"
    },
    {
      "bufferView": 3,
      "byteOffset": 529248,
      "componentType": 5126,
      "count": 10,
      "max": [
        0,
        0,
        0,
        1
      ],
      "min": [
        0,
        0,
        0,
        1
      ],
      "type": "VEC4"
    },
    {
      "bufferView": 3,
      "byteOffset": 529408,
      "componentType": 5126,
      "count": 10,
      "max": [
        0.75294101238250732,
        0.75294101238250732,
        0.75294101238250732,
        1
      ],
      "min": [
        0.75294101238250732,
        0.75294101238250732,
        0.75294101238250732,
        1
      ],
      "type": "VEC4"
    },
    {
      "bufferView": 0,
      "byteOffset": 373764,
      "componentType": 5125,
      "count": 15,
      "max": [
        9
      ],
      "min": [
        0
      ],
      "type": "SCALAR"
    }
  ],
  "asset": {
    "extras": {
      "author": "MGD Films (https://sketchfab.com/magadan)",
      "license": "CC-BY-4.0 (http://creativecommons.org/licenses/by/4.0/)",
      "source": "https://sketchfab.com/models/08e021c9407048dfb1022dfb6c13834a",
      "title": "3D Scan - Real Rock 001"
    },
    "generator": "Sketchfab-3.17.1",
    "version": "2.0"
  },
  "bufferViews": [
    {
      "buffer": 0,
      "byteLength": 373824,
      "byteOffset": 0,
      "name": "floatBufferViews",
      "target": 34963
    },
    {
      "buffer": 0,
      "byteLength": 132312,
      "byteOffset": 373824,
      "byteStride": 8,
      "name": "floatBufferViews",
      "target": 34962
    },
    {
      "buffer": 0,
      "byteLength": 397176,
      "byteOffset": 506136,
      "byteStride": 12,
      "name": "floatBufferViews",
      "target": 34962
    },
    {
      "buffer": 0,
      "byteLength": 529568,
      "byteOffset": 903312,
      "byteStride": 16,
      "name": "floatBufferViews",
      "target": 34962
    }
  ],
  "buffers": [
    {
      "byteLength": 1432880,
      "uri": "scene.bin"
    }
  ],
  "extensionsRequired": [
    "KHR_materials_pbrSpecularGlossiness"
  ],
  "extensionsUsed": [
    "KHR_materials_pbrSpecularGlossiness"
  ],
  "images": [
    {
      "uri": "textures/material_0_diffuse.jpeg"
    }
  ],
  "materials": [
    {
      "doubleSided": true,
      "emissiveFactor": [
        0,
        0,
        0
      ],
      "extensions": {
        "KHR_materials_pbrSpecularGlossiness": {
          "diffuseFactor": [
            1,
            1,
            1,
            1
          ],
          "diffuseTexture": {
            "index": 0,
            "texCoord": 0
          },
          "glossinessFactor": 0.20000000000000001,
          "specularFactor": [
            0,
            0,
            0
          ]
        }
      },
      "name": "material_0"
    },
    {
      "doubleSided": true,
      "emissiveFactor": [
        0,
        0,
        0
      ],
      "extensions": {
        "KHR_materials_pbrSpecularGlossiness": {
          "diffuseFactor": [
            1,
            1,
            1,
            1
          ],
          "glossinessFactor": 0.20000000000000001,
          "specularFactor": [
            0,
            0,
            0
          ]
        }
      },
      "name": "material_1"
    }
  ],
  "meshes": [
    {
      "primitives": [
        {
          "attributes": {
            "COLOR_0": 3,
            "NORMAL": 1,
            "POSITION": 0,
            "TANGENT": 2,
            "TEXCOORD_0": 4
          },
          "indices": 5,
          "material": 0,
          "mode": 4
        }
      ]
    },
    {
      "primitives": [
        {
          "attributes": {
            "COLOR_0": 9,
            "NORMAL": 7,
            "POSITION": 6,
            "TANGENT": 8
          },
          "indices": 10,
          "material": 1,
          "mode": 4
        }
      ]
    }
  ],
  "nodes": [
    {
      "children": [
        1
      ],
      "name": "RootNode (gltf orientation matrix)",
      "rotation": [
        -0.70710678118654746,
        -0,
        -0,
        0.70710678118654757
      ]
    },
    {
      "children": [
        2
      ],
      "matrix": [
        -1,
        0,
        0,
        0,
        0,
        0,
        1,
        0,
        0,
        1,
        0,
        0,
        2.197350025177002,
        -7.1157002449035645,
        7.1157002449035645,
        1
      ],
      "name": "RootNode (model correction matrix)"
    },
    {
      "children": [
        3,
        4
      ],
      "name": "mesh.obj.cleaner.gles"
    },
    {
      "mesh": 0,
      "name": ""
    },
    {
      "mesh": 1,
      "name": ""
    }
  ],
  "samplers": [
    {
      "magFilter": 9729,
      "minFilter": 9987,
      "wrapS": 10497,
      "wrapT": 10497
    }
  ],
  "scene": 0,
  "scenes": [
    {
      "name": "OSG_Scene",
      "nodes": [
        0
      ]
    }
  ],
  "textures": [
    {
      "sampler": 0,
      "source": 0
    }
  ]
}

