{
  "accessors": [
    {
      "bufferView": 2,
      "componentType": 5126,
      "count": 50110,
      "max": [
        15.261698722839355,
        17.032444000244141,
        8.688267707824707
      ],
      "min": [
        -7.5874729156494141,
        -0.62286299467086792,
        -12.464456558227539
      ],
      "type": "VEC3"
    },
    {
      "bufferView": 2,
      "byteOffset": 601320,
      "componentType": 5126,
      "count": 50110,
      "max": [
        0.9999692440032959,
        0.99997985363006592,
        0.99995946884155273
      ],
      "min": [
        -0.99997222423553467,
        -0.99999076128005981,
        -0.99996089935302734
      ],
      "type": "VEC3"
    },
    {
      "bufferView": 3,
      "componentType": 5126,
      "count": 50110,
      "max": [
        0.99999576807022095,
        0.99875694513320923,
        0.99999576807022095,
        1
      ],
      "min": [
        -0.99993431568145752,
        -0.99980652332305908,
        -0.99998646974563599,
        -1
      ],
      "type": "VEC4"
    },
    {
      "bufferView": 1,
      "componentType": 5126,
      "count": 50110,
      "max": [
        0.99750798940658569,
        0.99902302026748657
      ],
      "min": [
        0.0010130000300705433,
        0.011282999999821186
      ],
      "type": "VEC2"
    },
    {
      "bufferView": 0,
      "componentType": 5125,
      "count": 235365,
      "max": [
        50109
      ],
      "min": [
        0
      ],
      "type": "SCALAR"
    },
    {
      "bufferView": 2,
      "byteOffset": 1202640,
      "componentType": 5126,
      "count": 47622,
      "max": [
        14.918208122253418,
        16.411138534545898,
        8.6681861877441406
      ],
      "min": [
        -8.0158157348632812,
        -0.72428500652313232,
        -12.464456558227539
      ],
      "type": "VEC3"
    },
    {
      "bufferView": 2,
      "byteOffset": 1774104,
      "componentType": 5126,
      "count": 47622,
      "max": [
        0.9999963641166687,
        0.99997985363006592,
        0.99997609853744507
      ],
      "min": [
        -0.99993163347244263,
        -0.99991238117218018,
        -0.99976575374603271
      ],
      "type": "VEC3"
    },
    {
      "bufferView": 3,
      "byteOffset": 801760,
      "componentType": 5126,
      "count": 47622,
      "max": [
        0.99999868869781494,
        0.99796485900878906,
        0.99992120265960693,
        1
      ],
      "min": [
        -0.99998646974563599,
        -0.9998924732208252,
        -0.99999243021011353,
        -1
      ],
      "type": "VEC4"
    },
    {
      "bufferView": 1,
      "byteOffset": 400880,
      "componentType": 5126,
      "count": 47622,
      "max": [
        0.99893200397491455,
        0.99902302026748657
      ],
      "min": [
        0.0010019999463111162,
        0.43274998664855957
      ],
      "type": "VEC2"
    },
    {
      "bufferView": 0,
      "byteOffset": 941460,
      "componentType": 5125,
      "count": 209565,
      "max": [
        47621
      ],
      "min": [
        0
      ],
      "type": "SCALAR"
    },
    {
      "bufferView": 2,
      "byteOffset": 2345568,
      "componentType": 5126,
      "count": 104,
      "max": [
        6.6725931167602539,
        11.198480606079102,
        7.3407840728759766
      ],
      "min": [
        -2.2150189876556396,
        5.9902729988098145,
        1.1412869691848755
      ],
      "type": "VEC3"
    },
    {
      "bufferView": 2,
      "byteOffset": 2346816,
      "componentType": 5126,
      "count": 104,
      "max": [
        0.74307233095169067,
        0.92119890451431274,
        0.45053616166114807
      ],
      "min": [
        0.073549993336200714,
        0.58353400230407715,
        -0.32352402806282043
      ],
      "type": "VEC3"
    },
    {
      "bufferView": 0,
      "byteOffset": 1779720,
      "componentType": 5125,
      "count": 219,
      "max": [
        103
      ],
      "min": [
        0
      ],
      "type": "SCALAR"
    }
  ],
  "asset": {
    "extras": {
      "author": "thehydrous (https://sketchfab.com/thehydro.us)",
      "license": "CC-BY-4.0 (http://creativecommons.org/licenses/by/4.0/)",
      "source": "https://sketchfab.com/models/3bacf518167b46d78fef48ef9e0b7019",
      "title": "Pocillopora meandrina"
    },
    "generator": "Sketchfab-3.23.2",
    "version": "2.0"
  },
  "bufferViews": [
    {
      "buffer": 0,
      "byteLength": 1780596,
      "byteOffset": 0,
      "name": "floatBufferViews",
      "target": 34963
    },
    {
      "buffer": 0,
      "byteLength": 781856,
      "byteOffset": 1780596,
      "byteStride": 8,
      "name": "floatBufferViews",
      "target": 34962
    },
    {
      "buffer": 0,
      "byteLength": 2348064,
      "byteOffset": 2562452,
      "byteStride": 12,
      "name": "floatBufferViews",
      "target": 34962
    },
    {
      "buffer": 0,
      "byteLength": 1563712,
      "byteOffset": 4910516,
      "byteStride": 16,
      "name": "floatBufferViews",
      "target": 34962
    }
  ],
  "buffers": [
    {
      "byteLength": 6474228,
      "uri": "scene.bin"
    }
  ],
  "extensionsUsed": [
    "KHR_materials_unlit"
  ],
  "images": [
    {
      "uri": "textures/Material_0_baseColor.jpeg"
    },
    {
      "uri": "textures/Material_1_baseColor.jpeg"
    }
  ],
  "materials": [
    {
      "doubleSided": true,
      "emissiveFactor": [
        0,
        0,
        0
      ],
      "extensions": {
        "KHR_materials_unlit": {}
      },
      "name": "Material_0",
      "pbrMetallicRoughness": {
        "baseColorFactor": [
          1,
          1,
          1,
          1
        ],
        "baseColorTexture": {
          "index": 0,
          "texCoord": 0
        },
        "metallicFactor": 0,
        "roughnessFactor": 1
      }
    },
    {
      "doubleSided": true,
      "emissiveFactor": [
        0,
        0,
        0
      ],
      "extensions": {
        "KHR_materials_unlit": {}
      },
      "name": "Material_1",
      "pbrMetallicRoughness": {
        "baseColorFactor": [
          1,
          1,
          1,
          1
        ],
        "baseColorTexture": {
          "index": 1,
          "texCoord": 0
        },
        "metallicFactor": 0,
        "roughnessFactor": 1
      }
    },
    {
      "doubleSided": true,
      "emissiveFactor": [
        0,
        0,
        0
      ],
      "extensions": {
        "KHR_materials_unlit": {}
      },
      "name": "Material_2",
      "pbrMetallicRoughness": {
        "baseColorFactor": [
          0.5,
          0.5,
          0.5,
          1
        ],
        "metallicFactor": 0,
        "roughnessFactor": 1
      }
    }
  ],
  "meshes": [
    {
      "primitives": [
        {
          "attributes": {
            "NORMAL": 1,
            "POSITION": 0,
            "TANGENT": 2,
            "TEXCOORD_0": 3
          },
          "indices": 4,
          "material": 0,
          "mode": 4
        }
      ]
    },
    {
      "primitives": [
        {
          "attributes": {
            "NORMAL": 6,
            "POSITION": 5,
            "TANGENT": 7,
            "TEXCOORD_0": 8
          },
          "indices": 9,
          "material": 1,
          "mode": 4
        }
      ]
    },
    {
      "primitives": [
        {
          "attributes": {
            "NORMAL": 11,
            "POSITION": 10
          },
          "indices": 12,
          "material": 2,
          "mode": 4
        }
      ]
    }
  ],
  "nodes": [
    {
      "children": [
        1
      ],
      "name": "RootNode (gltf orientation matrix)",
      "rotation": [
        -0.70710678118654746,
        -0,
        -0,
        0.70710678118654757
      ]
    },
    {
      "children": [
        2
      ],
      "matrix": [
        -0.38158679008483887,
        0.92257732152938843,
        -0.056944023817777634,
        0,
        0.42093014717102051,
        0.1185929924249649,
        -0.8993072509765625,
        0,
        -0.82292729616165161,
        -0.36713320016860962,
        -0.43359413743019104,
        0,
        0.019153844565153122,
        3.1514763832092285,
        4.832423210144043,
        1
      ],
      "name": "RootNode (model correction matrix)"
    },
    {
      "children": [
        3,
        4,
        5
      ],
      "name": "Coral_4_SL_100pics-exported.obj.cleaner.materialmerger.gles"
    },
    {
      "mesh": 0,
      "name": ""
    },
    {
      "mesh": 1,
      "name": ""
    },
    {
      "mesh": 2,
      "name": ""
    }
  ],
  "samplers": [
    {
      "magFilter": 9729,
      "minFilter": 9987,
      "wrapS": 10497,
      "wrapT": 10497
    }
  ],
  "scene": 0,
  "scenes": [
    {
      "name": "OSG_Scene",
      "nodes": [
        0
      ]
    }
  ],
  "textures": [
    {
      "sampler": 0,
      "source": 0
    },
    {
      "sampler": 0,
      "source": 1
    }
  ]
}

